<?xml version="1.0" standalone="no"?>
<!DOCTYPE svg PUBLIC "-//W3C//DTD SVG 20010904//EN"
 "http://www.w3.org/TR/2001/REC-SVG-20010904/DTD/svg10.dtd">
<svg version="1.0" xmlns="http://www.w3.org/2000/svg"
 width="120.000000pt" height="120.000000pt" viewBox="0 0 120.000000 120.000000"
 preserveAspectRatio="xMidYMid meet">
<metadata>
Created by potrace 1.14, written by Peter Selinger 2001-2017
</metadata>
<g transform="translate(0.000000,120.000000) scale(0.100000,-0.100000)"
fill="#000000" stroke="none">
<path d="M583 1058 c-6 -7 -41 -73 -77 -145 -36 -73 -69 -133 -73 -133 -4 0
-35 27 -68 59 l-60 60 -137 -253 c-76 -139 -138 -260 -138 -268 0 -9 20 -23
48 -33 26 -10 52 -21 57 -26 6 -4 33 -16 60 -27 28 -11 91 -39 140 -62 50 -24
130 -60 178 -81 l88 -38 207 93 c114 51 243 109 287 129 50 22 79 40 77 49 -2
7 -65 127 -140 266 l-136 252 -65 -65 -66 -65 -75 147 c-41 81 -80 149 -86
150 -6 2 -16 -2 -21 -9z m150 -355 l129 -256 -131 -131 -131 -131 -131 131
-131 131 129 256 c70 142 130 257 133 257 3 0 63 -115 133 -257z m-396 -129
l-72 -144 98 -95 c54 -52 96 -95 93 -95 -3 0 -68 29 -145 65 -77 35 -156 71
-176 79 l-37 16 20 32 c10 18 52 94 92 168 40 74 82 150 93 168 l20 34 43 -43
43 -42 -72 -143z m650 33 c57 -106 103 -196 104 -201 0 -7 -333 -166 -348
-166 -3 0 40 43 94 95 l98 95 -72 143 -71 144 41 41 c23 23 44 42 47 42 3 0
51 -87 107 -193z"/>
</g>
</svg>
